<svg width="864" height="384" xmlns="http://www.w3.org/2000/svg" xmlns:xlink="http://www.w3.org/1999/xlink" overflow="hidden"><g><rect x="0" y="0" width="864" height="384" fill="#FFFFFF"/><path d="M30 44.2505C30 40.2462 33.2462 37 37.2505 37L259.75 37C263.754 37 267 40.2462 267 44.2505L267 203.75C267 207.754 263.754 211 259.75 211L37.2505 211C33.2462 211 30 207.754 30 203.75Z" stroke="#0C222C" stroke-width="2" stroke-miterlimit="8" fill="#EAF2FA" fill-rule="evenodd"/><text font-family="Aptos,Aptos_MSFontService,sans-serif" font-weight="700" font-size="19" transform="translate(41.2301 62)">Client</text><path d="M48 124.834C48 123.269 49.2687 122 50.8337 122L246.166 122C247.731 122 249 123.269 249 124.834L249 187.166C249 188.731 247.731 190 246.166 190L50.8337 190C49.2687 190 48 188.731 48 187.166Z" stroke="#9CB0C0" stroke-width="2" stroke-miterlimit="8" fill="#F2F2F2" fill-rule="evenodd"/><text font-family="Aptos,Aptos_MSFontService,sans-serif" font-weight="400" font-size="19" transform="translate(82.7546 163)">HTTP API (REST)</text><text font-family="Aptos,Aptos_MSFontService,sans-serif" font-weight="400" font-size="19" transform="translate(57.469 107)">Python, JavaScript</text><path d="M318 201.334C318 197.836 320.836 195 324.334 195L832.666 195C836.164 195 839 197.836 839 201.334L839 340.666C839 344.164 836.164 347 832.666 347L324.334 347C320.836 347 318 344.164 318 340.666Z" stroke="#0C222C" stroke-width="2" stroke-miterlimit="8" fill="#EAF2FA" fill-rule="evenodd"/><text font-family="Aptos,Aptos_MSFontService,sans-serif" font-weight="700" font-size="19" transform="translate(329.24 220)">Storage Engine</text><path d="M318 42.6254C318 39.5186 320.519 37 323.625 37L833.375 37C836.481 37 839 39.5186 839 42.6254L839 166.375C839 169.481 836.481 172 833.375 172L323.625 172C320.519 172 318 169.481 318 166.375Z" stroke="#0C222C" stroke-width="2" stroke-miterlimit="8" fill="#EAF2FA" fill-rule="evenodd"/><text font-family="Aptos,Aptos_MSFontService,sans-serif" font-weight="700" font-size="19" transform="translate(329.033 62)">Server</text><path d="M30 239.667C30 237.089 32.0894 235 34.6669 235L262.333 235C264.911 235 267 237.089 267 239.667L267 342.333C267 344.911 264.911 347 262.333 347L34.6669 347C32.0894 347 30 344.911 30 342.333Z" stroke="#0C222C" stroke-width="2" stroke-miterlimit="8" stroke-dasharray="16 6" fill="#EAF2FA" fill-rule="evenodd"/><text font-family="Aptos,Aptos_MSFontService,sans-serif" font-weight="700" font-size="19" transform="translate(40.4762 259)">Gateway (Nginx etc.)</text><path d="M346 269.792C346 268.25 347.25 267 348.792 267L560.208 267C561.75 267 563 268.25 563 269.792L563 331.208C563 332.75 561.75 334 560.208 334L348.792 334C347.25 334 346 332.75 346 331.208Z" stroke="#9CB0C0" stroke-width="2" stroke-miterlimit="8" fill="#F2F2F2" fill-rule="evenodd"/><text font-family="Aptos,Aptos_MSFontService,sans-serif" font-weight="400" font-size="19" transform="translate(356.863 291)">SQLite</text><text font-family="Aptos,Aptos_MSFontService,sans-serif" font-weight="400" font-size="15" transform="translate(356.863 310)">metadata,</text><text font-family="Aptos,Aptos_MSFontService,sans-serif" font-weight="400" font-size="15" transform="translate(356.863 327)">small files (in</text><text font-family="Aptos,Aptos_MSFontService,sans-serif" font-weight="400" font-size="15" transform="translate(440.697 327)">-</text><text font-family="Aptos,Aptos_MSFontService,sans-serif" font-weight="400" font-size="15" transform="translate(445.697 327)">DB blobs)</text><path d="M582 269.792C582 268.25 583.25 267 584.792 267L816.208 267C817.75 267 819 268.25 819 269.792L819 331.208C819 332.75 817.75 334 816.208 334L584.792 334C583.25 334 582 332.75 582 331.208Z" stroke="#9CB0C0" stroke-width="2" stroke-miterlimit="8" fill="#F2F2F2" fill-rule="evenodd"/><text font-family="Aptos,Aptos_MSFontService,sans-serif" font-weight="400" font-size="19" transform="translate(592.828 291)">Filesystem</text><text font-family="Aptos,Aptos_MSFontService,sans-serif" font-weight="400" font-size="15" transform="translate(592.828 310)">l</text><text font-family="Aptos,Aptos_MSFontService,sans-serif" font-weight="400" font-size="15" transform="translate(596.662 310)">arge</text><text font-family="Aptos,Aptos_MSFontService,sans-serif" font-weight="400" font-size="15" transform="translate(627.162 310)">file blobs on disk</text><path d="M341 76.3751C341 75.6157 341.616 75 342.375 75L561.625 75C562.384 75 563 75.6157 563 76.3751L563 106.625C563 107.384 562.384 108 561.625 108L342.375 108C341.616 108 341 107.384 341 106.625Z" stroke="#9CB0C0" stroke-width="2" stroke-miterlimit="8" fill="#F2F2F2" fill-rule="evenodd"/><text font-family="Aptos,Aptos_MSFontService,sans-serif" font-weight="400" font-size="15" transform="translate(351.02 97)">Async workers</text><path d="M582 76.375C582 75.6156 582.616 75 583.375 75L817.625 75C818.384 75 819 75.6156 819 76.375L819 106.625C819 107.384 818.384 108 817.625 108L583.375 108C582.616 108 582 107.384 582 106.625Z" stroke="#9CB0C0" stroke-width="2" stroke-miterlimit="8" fill="#F2F2F2" fill-rule="evenodd"/><text font-family="Aptos,Aptos_MSFontService,sans-serif" font-weight="400" font-size="15" transform="translate(592.412 97)">Logging &amp; Monitoring</text><path d="M582 121.417C582 120.634 582.634 120 583.417 120L817.583 120C818.366 120 819 120.634 819 121.417L819 152.583C819 153.366 818.366 154 817.583 154L583.417 154C582.634 154 582 153.366 582 152.583Z" stroke="#9CB0C0" stroke-width="2" stroke-miterlimit="8" fill="#F2F2F2" fill-rule="evenodd"/><text font-family="Aptos,Aptos_MSFontService,sans-serif" font-weight="400" font-size="15" transform="translate(592.412 142)">WebDAV compatible layer</text><path d="M341 121.417C341 120.634 341.634 120 342.417 120L561.583 120C562.366 120 563 120.634 563 121.417L563 152.583C563 153.366 562.366 154 561.583 154L342.417 154C341.634 154 341 153.366 341 152.583Z" stroke="#9CB0C0" stroke-width="2" stroke-miterlimit="8" fill="#F2F2F2" fill-rule="evenodd"/><text font-family="Aptos,Aptos_MSFontService,sans-serif" font-weight="400" font-size="15" transform="translate(351.02 142)">Authentication</text><path d="M48 287.875C48 286.84 48.8396 286 49.8753 286L247.125 286C248.16 286 249 286.84 249 287.875L249 329.125C249 330.16 248.16 331 247.125 331L49.8753 331C48.8396 331 48 330.16 48 329.125Z" stroke="#9CB0C0" stroke-width="2" stroke-miterlimit="8" fill="#F2F2F2" fill-rule="evenodd"/><text font-family="Aptos,Aptos_MSFontService,sans-serif" font-weight="400" font-size="19" transform="translate(114.571 315)">SSL/TLS</text><path d="M149 211 149 227.707 147 227.707 147 211ZM152 226.374 148 234.374 144 226.374Z"/><path d="M0-1 26.6-1 26.6 186.156 25.6 185.156 44.5333 185.156 44.5333 187.156 24.6 187.156 24.6 0 25.6 1 0 1ZM43.2 182.156 51.2 186.156 43.2 190.156Z" transform="matrix(1 0 0 -1 267 291.156)"/><path d="M579 172 579 187.885 577 187.885 577 172ZM582 186.551 578 194.551 574 186.552Z"/><text font-family="Aptos,Aptos_MSFontService,sans-serif" font-weight="400" font-size="19" transform="translate(356.044 253)">Transaction based operations</text></g></svg>